<?xml version="1.0" standalone="no"?>
<!DOCTYPE svg PUBLIC "-//W3C//DTD SVG 20010904//EN"
 "http://www.w3.org/TR/2001/REC-SVG-20010904/DTD/svg10.dtd">
<svg version="1.0" xmlns="http://www.w3.org/2000/svg"
 width="200.000000pt" height="200.000000pt" viewBox="0 0 200.000000 200.000000"
 preserveAspectRatio="xMidYMid meet">

<g transform="translate(0.000000,200.000000) scale(0.100000,-0.100000)"
fill="#000000" stroke="none">
<path d="M590 1942 c-21 -11 -43 -35 -55 -58 -19 -38 -20 -58 -17 -889 3 -947
0 -899 72 -937 32 -16 66 -18 410 -18 344 0 378 2 410 18 73 38 69 -11 71 938
2 819 1 852 -17 889 -37 75 -40 75 -464 75 -344 0 -378 -2 -410 -18z m806 -66
l34 -34 0 -842 0 -842 -34 -34 -34 -34 -362 0 -362 0 -34 34 -34 34 0 842 0
842 34 34 34 34 362 0 362 0 34 -34z"/>
</g>
</svg>
